<mxfile host="app.diagrams.net" modified="2022-01-20T17:37:42.476Z" agent="5.0 (Macintosh; Intel Mac OS X 10_15_7) AppleWebKit/537.36 (KHTML, like Gecko) Chrome/96.0.4664.110 Safari/537.36 OPR/82.0.4227.50" etag="-Yh2scYam6BH2ydjAqiJ" version="16.2.6" type="github">
  <diagram id="PmdWD66DJECXze5O8Exd" name="Page-1">
    <mxGraphModel dx="996" dy="529" grid="1" gridSize="10" guides="1" tooltips="1" connect="1" arrows="1" fold="1" page="1" pageScale="1" pageWidth="827" pageHeight="1169" math="0" shadow="0">
      <root>
        <mxCell id="0" />
        <mxCell id="1" parent="0" />
        <mxCell id="vgGN7njo_FZb3Iuedt8--10" value="" style="shape=cylinder3;whiteSpace=wrap;html=1;boundedLbl=1;backgroundOutline=1;size=15;" parent="1" vertex="1">
          <mxGeometry x="359" y="50" width="110" height="70" as="geometry" />
        </mxCell>
        <mxCell id="rHox_tHoKOphirUkLWMr-1" value="" style="rounded=0;whiteSpace=wrap;html=1;" vertex="1" parent="1">
          <mxGeometry x="328" y="190" width="169" height="30" as="geometry" />
        </mxCell>
        <mxCell id="rHox_tHoKOphirUkLWMr-2" value="" style="rounded=1;whiteSpace=wrap;html=1;" vertex="1" parent="1">
          <mxGeometry x="331" y="140" width="166" height="30" as="geometry" />
        </mxCell>
      </root>
    </mxGraphModel>
  </diagram>
</mxfile>
